<?xml version="1.0" standalone="no"?>
<!DOCTYPE svg PUBLIC "-//W3C//DTD SVG 20010904//EN"
 "http://www.w3.org/TR/2001/REC-SVG-20010904/DTD/svg10.dtd">
<svg version="1.0" xmlns="http://www.w3.org/2000/svg"
 width="650.000000pt" height="650.000000pt" viewBox="0 0 650.000000 650.000000"
 preserveAspectRatio="xMidYMid meet">
<metadata>
Created by potrace 1.11, written by Peter Selinger 2001-2013
</metadata>
<g transform="translate(0.000000,650.000000) scale(0.100000,-0.100000)"
fill="#000000" stroke="none">
<path d="M3040 6109 c-350 -24 -727 -128 -1060 -294 -858 -426 -1441 -1233
-1582 -2190 -30 -203 -32 -585 -5 -780 94 -662 371 -1221 832 -1680 457 -455
1004 -725 1670 -822 170 -25 582 -25 750 0 519 78 935 245 1340 540 152 111
347 292 484 452 607 703 836 1678 610 2586 -203 817 -760 1513 -1511 1890
-469 235 -983 335 -1528 298z m1440 -587 c143 -42 250 -112 512 -335 111 -94
134 -119 179 -195 79 -131 150 -223 215 -278 115 -98 113 -96 191 -319 54
-157 112 -408 111 -485 0 -14 12 -140 27 -280 43 -413 43 -386 9 -403 -79 -40
-643 -181 -689 -173 -18 4 -66 30 -106 59 -41 28 -93 65 -116 81 -48 32 -54
58 -20 81 13 8 54 56 92 106 l69 91 40 -5 c23 -3 53 -8 67 -12 36 -9 85 32 75
63 -22 68 -153 182 -278 243 -54 26 -59 34 -24 43 13 3 50 20 81 38 58 33 83
69 66 96 -4 6 -43 25 -86 42 -44 18 -102 40 -129 51 -36 14 -74 19 -147 19
-55 0 -99 1 -99 3 0 1 14 29 30 61 37 73 40 110 8 103 -13 -3 -78 -11 -146
-18 -97 -10 -138 -10 -193 -1 -38 7 -91 12 -118 12 -59 0 -82 17 -167 122 -32
40 -71 86 -86 102 -15 15 -28 34 -28 41 0 16 125 45 194 45 28 -1 87 -7 131
-15 44 -8 89 -12 101 -9 11 3 64 -6 117 -19 133 -34 142 -13 12 27 -162 50
-329 65 -463 42 -107 -19 -112 -19 -112 -7 0 4 46 23 103 42 95 31 111 33 237
33 74 0 144 -3 155 -8 11 -4 36 -10 55 -11 55 -5 228 -62 307 -100 164 -80
292 -256 350 -482 21 -83 24 -112 19 -188 -3 -50 -1 -97 4 -105 8 -12 10 -11
10 7 0 34 27 53 73 53 45 0 149 34 127 42 -7 2 -46 0 -87 -5 -41 -5 -76 -7
-78 -5 -10 9 -14 55 -7 66 5 7 38 20 73 28 98 22 129 34 129 50 0 18 -3 18
-95 -3 -46 -10 -79 -13 -85 -7 -5 5 -14 39 -19 75 -15 90 -35 144 -78 207 -41
59 -39 68 25 83 22 5 57 19 77 30 54 32 25 41 -64 19 -86 -22 -97 -19 -172 45
-135 116 -244 170 -436 216 -120 28 -116 22 -112 171 2 63 -1 102 -9 110 -8 8
-12 4 -17 -18 -3 -16 -13 -54 -21 -85 -8 -30 -14 -74 -14 -97 l0 -42 -92 0
c-126 -1 -231 -21 -329 -64 -46 -19 -84 -34 -85 -33 -1 1 -14 27 -29 57 -15
30 -41 72 -57 92 -28 36 -29 41 -23 105 4 38 15 106 26 153 76 332 267 526
564 574 55 8 189 -3 255 -22z m-1556 -487 c139 -18 264 -56 327 -99 26 -17 89
-71 140 -120 52 -49 110 -100 129 -114 94 -70 152 -127 263 -265 162 -198 154
-187 136 -198 -8 -5 -23 -9 -35 -9 -12 0 -36 -10 -55 -23 -40 -27 -50 -68 -23
-98 25 -27 66 -24 128 11 102 58 215 31 407 -96 82 -54 100 -61 175 -62 55 -2
234 -38 293 -60 21 -7 17 -11 -39 -33 -65 -25 -95 -55 -84 -82 3 -9 43 -34 89
-56 86 -41 131 -70 204 -133 l43 -37 -39 -10 c-21 -6 -61 -11 -88 -11 -144 0
-302 -36 -407 -92 -62 -33 -81 -55 -76 -90 6 -41 31 -44 89 -8 29 18 71 39 92
46 l40 14 -6 -37 c-3 -21 -15 -96 -26 -168 -24 -148 -26 -207 -10 -273 13 -54
117 -322 130 -336 5 -6 9 -18 9 -28 0 -24 -41 -33 -85 -18 -48 16 -71 -2 -36
-27 13 -8 38 -48 56 -87 18 -39 56 -99 84 -133 29 -35 50 -67 46 -73 -9 -15
-202 -12 -292 5 -43 8 -122 28 -174 45 -51 16 -105 30 -118 30 -22 0 -23 -3
-17 -41 4 -23 13 -54 21 -70 8 -15 15 -33 15 -38 0 -6 -43 5 -95 24 -53 19
-105 35 -115 35 -33 0 -23 -29 29 -86 35 -38 52 -67 58 -97 8 -41 10 -42 43
-39 42 5 100 27 100 40 0 4 -7 17 -15 28 -22 29 -18 44 13 44 73 0 122 -75
122 -188 0 -51 3 -57 40 -91 49 -44 70 -105 70 -198 0 -76 12 -79 47 -13 38
72 31 122 -30 202 -20 25 -33 49 -30 52 4 3 25 6 47 6 54 0 66 9 77 59 12 55
0 77 -52 93 -36 10 -46 10 -72 -6 -31 -17 -31 -17 -51 10 -11 15 -45 55 -74
88 -29 34 -60 74 -68 89 -14 27 -14 28 3 23 10 -3 32 -8 48 -12 17 -3 66 -18
110 -32 70 -22 96 -26 205 -25 73 1 130 -3 138 -9 17 -14 15 -57 -3 -64 -20
-8 -89 -113 -129 -198 -38 -80 -59 -160 -76 -289 -7 -48 -15 -89 -19 -92 -4
-2 -33 3 -65 11 -50 13 -99 14 -340 5 -326 -11 -390 -23 -445 -86 -37 -43 -61
-96 -61 -137 0 -42 15 -33 86 53 40 49 72 78 95 85 58 20 509 58 608 51 122
-9 125 -10 117 -65 -3 -25 -6 -82 -6 -126 l0 -82 -627 0 c-501 1 -676 -3 -863
-17 -289 -21 -293 -21 -318 1 -17 14 -22 34 -27 120 l-7 102 45 20 c25 11 66
23 91 26 26 4 49 11 52 15 8 14 90 11 154 -6 86 -22 156 -56 263 -128 89 -60
97 -63 97 -42 0 51 -212 183 -329 205 -68 13 -164 13 -177 1 -9 -10 -192 -36
-199 -29 -2 2 -8 55 -14 118 -8 89 -8 116 2 122 7 4 17 1 25 -10 35 -48 83
-88 140 -115 60 -28 82 -31 67 -8 -3 6 -37 31 -75 56 -38 25 -76 55 -84 67
-35 49 -6 151 62 221 36 37 36 37 10 37 -14 0 -37 -10 -52 -21 -15 -12 -30
-19 -33 -16 -3 3 8 52 23 108 39 141 36 139 217 105 78 -15 183 -36 232 -47
277 -62 489 -100 625 -110 58 -4 112 -9 120 -10 28 -6 119 13 130 26 13 16 -6
19 -200 35 -114 10 -296 36 -310 45 -3 2 -60 13 -126 24 -65 11 -182 34 -259
50 -155 33 -345 61 -424 62 -41 1 -59 -4 -88 -24 -43 -31 -68 -23 -78 22 -9
40 -42 81 -66 81 -34 0 -75 -27 -123 -82 l-46 -53 0 86 c0 52 -5 90 -12 97
-15 15 -53 15 -80 1 -11 -6 -22 -8 -25 -5 -3 2 2 40 10 83 9 43 23 116 32 163
9 47 31 128 48 180 l32 95 3 -82 c4 -122 20 -109 53 46 8 39 20 62 42 82 22
21 35 46 47 96 10 37 23 69 29 71 6 2 18 -14 27 -35 8 -21 21 -51 29 -68 7
-16 21 -50 31 -75 9 -25 25 -54 35 -65 26 -29 46 -82 53 -145 8 -63 19 -86 36
-75 8 5 10 23 6 59 -7 53 4 128 24 181 9 20 14 25 17 15 25 -78 173 -252 245
-290 46 -24 167 -50 231 -50 56 0 164 32 229 67 28 15 85 61 126 101 l75 73
22 -21 c29 -28 57 -25 91 9 16 15 72 60 125 98 52 39 109 88 126 109 40 51
111 169 134 220 9 23 22 45 28 48 6 4 11 21 11 39 0 26 -12 43 -63 92 -96 92
-207 162 -326 205 -61 23 -65 23 -75 6 -31 -51 -49 -67 -75 -64 -22 2 -27 9
-29 37 -2 20 4 48 15 68 l18 34 -40 77 c-44 84 -175 229 -273 302 -59 44 -110
52 -146 25 -28 -21 -54 -18 -67 8 -17 33 -71 87 -87 87 -8 0 -55 -41 -104 -92
-73 -74 -93 -90 -107 -82 -17 11 -66 103 -113 212 -20 44 -33 62 -46 62 -28 0
-66 -46 -112 -135 -22 -44 -46 -80 -52 -80 -12 0 -15 9 -42 106 -9 31 -24 67
-34 79 -18 22 -20 23 -52 7 -18 -10 -34 -16 -35 -15 -2 2 13 43 31 93 47 126
52 166 24 205 -33 47 -60 143 -60 215 0 112 60 253 121 285 53 29 243 36 403
15z m1519 -908 c5 -14 -36 -67 -52 -67 -15 0 -81 41 -81 51 0 22 124 38 133
16z m-3148 -130 c-38 -68 -43 -107 -21 -148 10 -20 12 -56 8 -144 -5 -109 4
-198 29 -295 4 -19 16 -75 24 -125 9 -49 26 -111 37 -138 24 -52 22 -58 -33
-85 -41 -20 -52 -52 -18 -52 33 0 219 52 219 61 0 8 -11 12 -62 23 -45 10 -51
70 -19 184 11 40 27 120 36 179 18 118 26 140 58 152 31 12 207 -7 235 -25 28
-18 72 -87 72 -113 0 -39 -66 -41 -178 -6 -44 14 -87 23 -95 19 -40 -15 -28
-234 17 -328 13 -28 31 -78 40 -110 8 -32 20 -64 25 -69 8 -8 -2 -24 -33 -57
-55 -55 -96 -132 -96 -176 0 -41 -12 -43 -95 -14 -106 36 -150 18 -47 -20 31
-12 73 -30 92 -39 121 -62 171 -68 121 -14 -11 12 -26 23 -33 25 -22 8 20 120
68 182 52 66 131 127 159 123 18 -2 20 -8 16 -56 -2 -38 0 -52 9 -49 14 4 27
27 76 136 23 51 50 93 68 107 l30 24 -70 73 c-68 72 -104 128 -104 163 0 15 7
17 43 12 76 -11 187 -87 220 -152 18 -36 42 -151 52 -247 8 -79 -2 -118 -52
-200 -20 -32 -45 -86 -58 -120 -19 -55 -92 -187 -139 -255 -9 -12 -42 -36 -73
-54 -32 -18 -60 -34 -62 -35 -2 -2 2 -10 9 -19 10 -13 3 -19 -52 -44 -72 -32
-179 -61 -226 -61 -40 0 -130 35 -159 62 -17 16 -23 33 -23 65 0 48 -26 175
-42 208 -23 45 -61 75 -96 75 -40 0 -60 10 -127 61 -28 21 -72 43 -100 50 -71
17 -149 53 -205 94 -48 36 -111 118 -125 165 -4 14 -14 32 -21 41 -17 19 -75
220 -67 232 3 5 14 -5 24 -22 10 -17 30 -33 46 -37 40 -9 63 -32 85 -84 11
-25 29 -56 41 -69 59 -64 205 -151 255 -151 21 0 22 1 7 24 -20 30 -55 153
-49 170 3 7 -18 61 -47 121 -28 60 -59 142 -69 181 -20 79 -37 275 -25 294 5
9 17 3 40 -21 18 -19 43 -41 54 -49 13 -9 26 -33 32 -60 16 -71 139 -353 165
-377 13 -12 24 -28 24 -36 0 -8 9 -22 20 -32 19 -18 20 -17 20 6 0 14 -4 29
-10 35 -12 12 -29 131 -22 156 2 10 0 24 -5 31 -6 6 -16 83 -23 170 l-14 158
28 81 c15 45 38 102 51 128 25 48 144 180 164 180 6 0 -5 -28 -24 -63z m3551
-542 c4 -9 -11 -36 -38 -68 -25 -28 -53 -64 -63 -79 -10 -17 -26 -28 -40 -28
-22 0 -23 3 -18 68 3 37 10 72 15 77 9 10 101 42 126 44 7 1 15 -6 18 -14z
m-2801 -1072 c-4 -32 -13 -65 -21 -73 -7 -9 -21 -36 -29 -60 -23 -66 -64 -120
-114 -152 -53 -33 -61 -34 -61 -10 0 10 -3 21 -6 24 -3 3 -42 -11 -87 -31
-108 -50 -137 -57 -137 -34 0 12 29 33 90 66 49 26 92 52 95 57 3 5 -7 15 -22
23 l-27 15 70 35 c84 42 147 89 204 151 24 25 45 46 47 46 3 0 2 -26 -2 -57z
m-790 -48 c6 -53 12 -64 47 -98 33 -31 38 -40 27 -53 -15 -19 -13 -21 52 -44
111 -38 114 -40 99 -50 -50 -32 -234 22 -285 82 -43 51 -31 149 27 231 20 28
23 29 25 12 1 -11 5 -47 8 -80z m2993 -83 c2 -7 -2 -10 -12 -6 -9 3 -16 11
-16 16 0 13 23 5 28 -10z m-2220 -322 c12 -102 28 -266 37 -365 9 -99 22 -243
30 -320 8 -77 12 -141 10 -143 -5 -5 -182 115 -190 128 -4 6 0 19 9 29 29 32
17 131 -34 266 -43 113 -44 129 -10 183 33 54 38 87 15 96 -8 3 -15 0 -15 -7
0 -19 -63 -85 -87 -92 -27 -8 -29 7 -9 56 11 28 11 44 0 94 -26 117 -27 135
-14 135 28 0 137 60 180 98 25 22 48 37 51 34 4 -4 16 -90 27 -192z m-556 -18
c35 -12 90 -26 123 -32 93 -19 94 -19 51 -42 -39 -20 -96 -21 -176 -2 l-25 5
3 -78 4 -78 -62 75 c-91 110 -100 128 -94 175 9 67 9 67 63 31 28 -19 78 -43
113 -54z m3082 66 c16 -26 -4 -52 -42 -56 -26 -3 -34 2 -43 22 -18 39 -5 58
37 54 22 -2 42 -10 48 -20z m302 -43 c9 -23 -48 -160 -66 -160 -17 0 -25 42
-16 91 12 61 68 108 82 69z m272 -55 c23 -17 42 -36 42 -43 0 -7 -26 -34 -57
-61 l-58 -48 -3 77 c-4 118 5 127 76 75z m-3445 -165 c42 -29 54 -64 15 -44
-44 23 -85 69 -60 69 4 0 24 -11 45 -25z m3085 -102 c2 -33 -1 -44 -19 -56
-31 -22 -49 -11 -49 30 0 48 16 75 43 71 18 -2 23 -11 25 -45z m-2283 -33 c7
-23 -3 -100 -16 -121 -8 -12 -10 -12 -18 0 -16 25 -23 99 -11 121 14 26 37 26
45 0z m-775 -20 c30 -18 -31 -89 -66 -76 -19 7 -18 32 4 61 18 26 38 31 62 15z
m620 -112 c1 -87 22 -255 41 -316 7 -24 27 -60 45 -80 63 -72 94 -110 94 -116
0 -12 -79 -6 -107 9 -15 8 -45 21 -66 29 -46 18 -57 45 -57 136 0 59 -17 163
-48 290 -12 49 0 76 45 99 21 10 41 19 46 20 4 1 7 -32 7 -71z m2414 -4 c6
-16 -20 -60 -42 -69 -30 -12 -40 13 -22 59 11 30 54 36 64 10z m-2249 -155 c9
-52 -5 -69 -34 -40 -20 20 -29 79 -15 94 15 15 43 -15 49 -54z m45 -169 c23
-23 28 -104 8 -116 -19 -12 -68 52 -68 89 0 52 24 63 60 27z"/>
<path d="M3940 4948 c0 -90 25 -195 55 -233 15 -19 16 -16 11 36 -6 56 -53
269 -62 278 -2 2 -4 -34 -4 -81z"/>
<path d="M4685 4725 c-30 -15 -95 -81 -95 -97 0 -17 40 -7 68 17 31 26 77 95
64 95 -4 0 -20 -7 -37 -15z"/>
<path d="M2960 4792 c0 -4 -10 -12 -22 -17 -13 -6 -30 -25 -39 -42 -9 -18 -22
-39 -28 -47 -7 -8 -11 -32 -9 -53 6 -73 65 -53 199 70 l64 59 -24 19 c-17 14
-39 19 -82 19 -32 0 -59 -3 -59 -8z"/>
<path d="M2570 4746 c-36 -13 -54 -46 -26 -46 20 0 39 -36 31 -60 -9 -29 3
-58 26 -65 29 -10 49 12 49 54 0 20 4 53 9 74 8 31 6 39 -9 47 -23 12 -36 12
-80 -4z"/>
<path d="M3490 4585 c0 -3 14 -24 30 -47 35 -48 39 -73 11 -65 -34 9 -46 -9
-18 -28 36 -23 81 -17 85 13 6 37 -63 132 -95 132 -7 0 -13 -2 -13 -5z"/>
<path d="M3539 4378 c0 -2 -2 -20 -4 -40 -4 -33 -1 -39 20 -44 62 -15 60 44
-2 80 -7 4 -13 6 -14 4z"/>
<path d="M3973 4016 c-15 -13 -54 -36 -86 -52 -68 -33 -80 -50 -71 -102 11
-62 20 -72 65 -72 51 0 219 -18 279 -30 25 -5 68 -19 95 -31 118 -53 149 -57
122 -15 -11 16 -12 27 -5 41 22 39 -42 170 -110 224 -55 43 -112 61 -192 61
-57 0 -73 -4 -97 -24z m211 -41 c20 -9 55 -33 78 -54 39 -38 40 -40 34 -85 -4
-25 -11 -46 -15 -46 -16 0 -86 32 -104 48 -9 8 -20 33 -23 54 -10 62 -67 76
-80 19 -10 -40 -23 -51 -63 -51 -82 0 -93 17 -47 69 49 55 148 76 220 46z"/>
<path d="M4105 2859 c-5 -7 -1 -15 8 -21 29 -15 47 -39 47 -59 0 -15 6 -20 23
-17 33 5 37 61 5 82 -34 22 -75 30 -83 15z"/>
<path d="M4275 2707 c-17 -13 -16 -15 14 -25 31 -11 32 -13 30 -67 -3 -61 4
-74 29 -59 55 35 52 101 -7 141 -40 27 -41 27 -66 10z"/>
<path d="M4038 2676 c-26 -19 -22 -26 15 -26 40 0 79 -32 70 -58 -3 -9 -15
-30 -26 -45 -18 -26 -18 -30 -4 -44 14 -15 18 -15 40 0 14 9 33 37 42 61 16
42 16 47 1 70 -19 30 -40 42 -86 50 -23 4 -41 1 -52 -8z"/>
<path d="M2840 2126 c-10 -28 -3 -86 11 -86 6 0 22 72 21 97 -1 20 -23 12 -32
-11z"/>
<path d="M3012 1918 c5 -15 113 -43 243 -62 193 -29 552 -45 615 -27 35 10
-22 17 -287 36 -234 16 -360 30 -472 51 -89 17 -104 17 -99 2z"/>
<path d="M3345 1461 c-8 -14 61 -34 113 -33 68 2 71 17 6 31 -69 13 -111 14
-119 2z"/>
<path d="M1159 2975 c-119 -51 -149 -78 -129 -116 14 -26 28 -24 52 6 11 14
43 37 71 51 125 63 130 112 6 59z"/>
</g>
</svg>
